<?xml version="1.0" encoding="UTF-8"?>
<svg width="752pt" height="752pt" version="1.1" viewBox="0 0 752 752" xmlns="http://www.w3.org/2000/svg">
 <g fill="#2d5f72">
  <path d="m304.96 607.86h-143.06c-9.8672 0-17.758-7.8945-17.758-17.758v-428.2c0-9.8672 7.8945-17.758 17.758-17.758h143.06c9.8672 0 17.758 7.8945 17.758 17.758v428.2c0 9.8672-7.8906 17.762-17.758 17.762z"/>
  <path d="m590.1 305.95h-167.73c-9.8672 0-17.758-7.8945-17.758-17.758v-126.29c0-9.8672 7.8945-17.758 17.758-17.758h167.73c9.8672 0 17.758 7.8945 17.758 17.758v127.27c0.003906 8.8828-7.8906 16.773-17.758 16.773z"/>
  <path d="m590.1 597h-167.73c-9.8672 0-17.758-7.8945-17.758-17.758v-169.7c0-9.8672 7.8945-17.758 17.758-17.758h167.73c9.8672 0 17.758 7.8945 17.758 17.758v168.71c0.003906 10.852-7.8906 18.742-17.758 18.742z"/>
 </g>
</svg>
